# xmcd CD database file
#
# Track frame offsets:
#	150
#	11835
#	28455
#	43220
#	58483
#	70600
#	85937
#	99571
#	115192
#	133471
#
# Disc length: 2045 seconds
#
# Revision: 2
# Processed by: cddbd v1.4PL0 Copyright (c) Steve Scherf et al.
# Submitted via: CDex 1.40Release
#
DISCID=9707fb0a
DTITLE=Ben Freed - Speed of Sound
DYEAR=2000
DGENRE=Bluegrass
TTITLE0=Speed of Sound
TTITLE1=American Flounder
TTITLE2=Labor of Love
TTITLE3=Grind
TTITLE4=Magenta Morning
TTITLE5=The Snapper
TTITLE6=Bamboozled
TTITLE7=Over the Waterfall
TTITLE8=Locality
TTITLE9=Pipe's Cove
EXTD=YEAR: 2000 ID3G: 89
EXTT0=
EXTT1=
EXTT2=
EXTT3=
EXTT4=
EXTT5=
EXTT6=
EXTT7=
EXTT8=
EXTT9=
PLAYORDER=
